# xmcd
#
# Track frame offsets: 
#        150
#        17252
#        36938
#        53776
#        81035
#        108788
#        136299
#        162374
#        180067
#        203272
#
# Disc length: 3467 seconds
#
# Revision: 0
# Processed by: cddbd v1.5PL3 Copyright (c) Steve Scherf et al.
# Submitted via: ExactAudioCopy v0.95a4
#
DISCID=660d890a
DTITLE=Power Trio LIVE - Johnny DeFrancesco
DYEAR=2000
DGENRE=Blues
TTITLE0=Everyday I Have The Blues
TTITLE1=If You Love Me Like You Say
TTITLE2=Intro (Red House)
TTITLE3=Red House
TTITLE4=Sweet Home (Can't Take You)
TTITLE5=Black Cat Bone
TTITLE6=Let Me Love You Baby
TTITLE7=Call My Job
TTITLE8=Shake It
TTITLE9=Sissy Strut (Slight Return)
EXTD=
EXTT0=
EXTT1=
EXTT2=
EXTT3=
EXTT4=
EXTT5=
EXTT6=
EXTT7=
EXTT8=
EXTT9=
PLAYORDER=
